<svg width="386" height="449" viewBox="0 0 386 449" fill="none" xmlns="http://www.w3.org/2000/svg">
<path d="M80.5536 230.523H186.154" stroke="#D97706" stroke-width="2" stroke-dasharray="4 4"/>
<path d="M186.154 185.689H151.004C141.651 185.689 133.548 179.208 131.493 170.084L107.023 61.4362C104.968 52.3122 96.8645 45.8306 87.5119 45.8306L80.5536 45.8306" stroke="#D97706" stroke-width="2" stroke-dasharray="4 4"/>
<path d="M186.154 274.479H150.958C141.626 274.479 133.535 280.932 131.459 290.03L107.057 396.973C104.981 406.07 96.8895 412.523 87.558 412.523L80.5536 412.523" stroke="#D97706" stroke-width="2" stroke-dasharray="4 4"/>
<rect width="80" height="80" rx="8" transform="matrix(-1 0 0 1 80.5527 0.0234375)" fill="#DBEAFE"/>
<path fill-rule="evenodd" clip-rule="evenodd" d="M40.5527 64.0234C53.8076 64.0234 64.5527 53.2783 64.5527 40.0234C64.5527 26.7686 53.8076 16.0234 40.5527 16.0234C27.3019 16.0234 16.5592 26.7622 16.5527 40.0115H25.6846C25.691 31.8056 32.3452 25.1553 40.5527 25.1553C48.7642 25.1553 55.4209 31.812 55.4209 40.0234C55.4209 48.2349 48.7642 54.8916 40.5527 54.8916L40.5238 54.8916V64.0234L40.5527 64.0234ZM40.5235 45.4315H31.2426V54.7124H40.5235V45.4315ZM31.2426 54.7425H24.1112V48.7787H18.1473V54.7425H24.1108V61.8744H31.2426V54.7425Z" fill="#2563EB"/>
<rect width="80" height="80" rx="8" transform="matrix(-1 0 0 1 80.5527 190.523)" fill="#DBEAFE"/>
<g clip-path="url(#clip0_9292_121710)">
<path fill-rule="evenodd" clip-rule="evenodd" d="M40.9866 207.132C40.7124 207 40.393 207 40.1188 207.132L21.6414 216.03C21.3672 216.162 21.1681 216.412 21.1004 216.708L16.5368 236.703C16.4691 236.999 16.5402 237.311 16.7299 237.549L29.5167 253.583C29.7064 253.821 29.9942 253.959 30.2985 253.959H50.8069C51.1112 253.959 51.399 253.821 51.5888 253.583L64.3755 237.549C64.5653 237.311 64.6364 236.999 64.5686 236.703L60.0051 216.708C59.9374 216.412 59.7382 216.162 59.464 216.03L40.9866 207.132ZM39.8377 215.118C40.0214 214.914 40.2784 214.791 40.5526 214.775L40.5548 214.769C40.8289 214.784 41.086 214.907 41.2697 215.111C41.4534 215.315 41.5488 215.584 41.5351 215.858V216.137C41.5081 216.45 41.463 216.762 41.4001 217.07C41.3054 217.658 41.2682 218.254 41.289 218.849C41.3276 219.048 41.4425 219.224 41.6092 219.34C41.6101 219.355 41.6118 219.377 41.6137 219.404C41.621 219.505 41.6332 219.673 41.6332 219.775C44.7348 220.057 47.6286 221.455 49.7769 223.71L50.1495 223.444C50.35 223.478 50.556 223.456 50.7443 223.379C51.2228 223.024 51.6657 222.623 52.0667 222.183C52.2712 221.942 52.4894 221.713 52.7203 221.497C52.7813 221.444 52.8706 221.375 52.9381 221.322C53.0349 221.219 53.1527 221.138 53.2835 221.085C53.4142 221.031 53.5549 221.007 53.6961 221.012C53.8373 221.018 53.9756 221.054 54.1018 221.117C54.2279 221.181 54.3389 221.271 54.4273 221.381C54.5156 221.491 54.5793 221.619 54.6139 221.756C54.6486 221.893 54.6534 222.036 54.6281 222.175C54.6028 222.314 54.548 222.446 54.4673 222.562C54.3866 222.678 54.2819 222.775 54.1604 222.847C54.1409 222.863 54.1198 222.88 54.0981 222.898C54.0445 222.942 53.9874 222.989 53.9425 223.022C53.6802 223.195 53.4082 223.354 53.1277 223.497C52.6089 223.79 52.12 224.134 51.668 224.523C51.536 224.677 51.4696 224.876 51.4828 225.078L51.1342 225.39C52.8743 227.983 53.6015 231.125 53.1778 234.22L53.5743 234.335C53.6715 234.517 53.818 234.668 53.997 234.771C54.5722 234.925 55.161 235.022 55.7551 235.061C56.0701 235.068 56.3843 235.094 56.6963 235.137C56.7493 235.147 56.8167 235.164 56.8806 235.18C56.9165 235.189 56.9512 235.197 56.9817 235.205C57.1171 235.223 57.2471 235.269 57.3635 235.341C57.48 235.412 57.5803 235.507 57.658 235.62C57.7358 235.732 57.7893 235.859 57.8152 235.993C57.8411 236.128 57.8388 236.266 57.8085 236.399C57.7782 236.532 57.7204 236.658 57.639 236.767C57.5575 236.877 57.4541 236.968 57.3354 237.036C57.2166 237.104 57.0851 237.146 56.9492 237.16C56.8133 237.174 56.676 237.159 56.546 237.117H56.5111C56.4842 237.112 56.4552 237.106 56.4257 237.1C56.3668 237.088 56.3063 237.076 56.2584 237.063C55.9617 236.966 55.6707 236.853 55.3869 236.723C54.8345 236.5 54.2618 236.332 53.6767 236.22C53.4743 236.213 53.2772 236.286 53.1277 236.422C53.058 236.407 52.8357 236.368 52.7094 236.348C51.7585 239.335 49.7424 241.868 47.0449 243.464C47.0909 243.599 47.1455 243.732 47.2083 243.86C47.1076 244.036 47.0802 244.244 47.1321 244.44C47.3712 244.986 47.6631 245.508 48.0035 245.998C48.1942 246.248 48.3702 246.509 48.5308 246.78C48.564 246.841 48.6068 246.932 48.6416 247.006C48.6478 247.019 48.6537 247.031 48.6593 247.043C48.7284 247.161 48.7723 247.292 48.788 247.428C48.8038 247.564 48.7911 247.701 48.7508 247.832C48.7105 247.962 48.6435 248.083 48.554 248.186C48.4644 248.29 48.3544 248.373 48.2309 248.432C48.1073 248.49 47.973 248.522 47.8364 248.526C47.6998 248.529 47.5639 248.505 47.4374 248.453C47.3109 248.401 47.1965 248.324 47.1015 248.226C47.0066 248.127 46.9332 248.01 46.8859 247.882C46.8734 247.856 46.8591 247.828 46.8445 247.798C46.8158 247.74 46.7855 247.679 46.7639 247.631C46.6516 247.337 46.5563 247.037 46.4785 246.732C46.3083 246.161 46.0828 245.609 45.8053 245.082C45.6846 244.919 45.5047 244.81 45.3042 244.777C45.2752 244.739 45.2044 244.612 45.144 244.503C45.1228 244.465 45.1028 244.429 45.0863 244.401C42.1678 245.505 38.9446 245.497 36.0319 244.377L35.814 244.78C35.6545 244.809 35.5078 244.887 35.3936 245.002C35.0588 245.551 34.8028 246.144 34.6332 246.764C34.5562 247.07 34.4616 247.37 34.35 247.664C34.3282 247.714 34.2977 247.775 34.2688 247.832C34.2544 247.861 34.2403 247.889 34.228 247.915C34.1811 248.044 34.1078 248.161 34.0128 248.26C33.9178 248.359 33.8032 248.437 33.6763 248.489C33.5495 248.541 33.4131 248.566 33.276 248.562C33.1389 248.559 33.0041 248.526 32.8802 248.468C32.7563 248.409 32.6461 248.325 32.5566 248.221C32.4671 248.117 32.4002 247.996 32.3604 247.864C32.3205 247.733 32.3085 247.595 32.3251 247.459C32.3417 247.323 32.3865 247.192 32.4568 247.074C32.4702 247.046 32.4853 247.014 32.501 246.98C32.5286 246.921 32.5581 246.857 32.5831 246.81C32.7437 246.539 32.9197 246.277 33.1103 246.026C33.4568 245.523 33.7545 244.988 33.9992 244.429C34.0256 244.239 33.9953 244.046 33.9121 243.873L34.0907 243.438C31.4028 241.854 29.3879 239.34 28.4263 236.372L27.9905 236.446C27.8246 236.329 27.6292 236.26 27.4263 236.248C26.8412 236.36 26.2684 236.528 25.716 236.751C25.4322 236.88 25.1413 236.993 24.8446 237.089C24.7929 237.104 24.7231 237.118 24.6576 237.132C24.6349 237.137 24.6127 237.141 24.5919 237.146H24.557C24.427 237.188 24.2896 237.202 24.1537 237.188C24.0178 237.174 23.8863 237.132 23.7676 237.064C23.6488 236.997 23.5455 236.905 23.464 236.796C23.3826 236.686 23.3248 236.56 23.2945 236.427C23.2641 236.294 23.2618 236.156 23.2877 236.022C23.3136 235.888 23.3672 235.76 23.4449 235.648C23.5227 235.536 23.623 235.441 23.7394 235.369C23.8559 235.298 23.9859 235.251 24.1213 235.233H24.1365L24.1503 235.229C24.229 235.21 24.328 235.186 24.398 235.172C24.71 235.128 25.0242 235.103 25.3391 235.096C25.9332 235.056 26.5221 234.959 27.0973 234.806C27.2684 234.694 27.4122 234.545 27.5178 234.37L27.9295 234.25C27.4836 231.154 28.1966 228.002 29.9317 225.398L29.618 225.117C29.6069 224.914 29.539 224.718 29.4219 224.551C28.9699 224.162 28.481 223.819 27.9622 223.525C27.6824 223.382 27.4111 223.224 27.1496 223.05C27.1122 223.022 27.0669 222.985 27.0221 222.948C26.9964 222.927 26.9708 222.906 26.947 222.886H26.9317C26.7083 222.726 26.5574 222.484 26.5121 222.213C26.4667 221.942 26.5307 221.664 26.6899 221.44C26.7839 221.325 26.9037 221.233 27.0395 221.173C27.1754 221.113 27.3236 221.086 27.472 221.093C27.7217 221.104 27.9615 221.194 28.1561 221.351C28.1643 221.357 28.1729 221.364 28.1817 221.37C28.2454 221.42 28.3223 221.479 28.374 221.525C28.6049 221.741 28.8232 221.97 29.0276 222.211C29.4285 222.652 29.8714 223.052 30.35 223.407C30.5297 223.502 30.7393 223.522 30.9339 223.464C30.966 223.482 31.0408 223.537 31.1195 223.594C31.1796 223.637 31.2418 223.682 31.289 223.714C33.0134 221.882 35.2462 220.606 37.7007 220.052C38.2848 219.92 38.8774 219.829 39.4742 219.78L39.4981 219.364C39.6503 219.228 39.7607 219.052 39.8162 218.856C39.8378 218.261 39.8013 217.664 39.7073 217.076C39.6444 216.768 39.5993 216.457 39.5722 216.144V215.893V215.865C39.5585 215.59 39.654 215.322 39.8377 215.118ZM39.0319 227.531L39.3238 222.385C38.9746 222.428 38.6277 222.488 38.2846 222.566C36.4469 222.979 34.7611 223.898 33.4175 225.218L37.6376 228.185C37.764 228.274 37.9119 228.328 38.0662 228.342C38.2205 228.355 38.3755 228.327 38.5152 228.26C38.655 228.194 38.7746 228.091 38.8615 227.963C38.9485 227.835 38.9998 227.686 39.0101 227.531H39.0319ZM47.6658 225.218C46.0687 223.654 44.0018 222.659 41.7835 222.385L42.082 227.538C42.0921 227.693 42.1433 227.842 42.2304 227.97C42.3175 228.099 42.4373 228.202 42.5774 228.268C42.7176 228.335 42.8729 228.363 43.0275 228.349C43.1821 228.336 43.3303 228.281 43.4567 228.191H43.472L47.6658 225.218ZM35.7334 230.586L31.8794 227.139V227.141C30.7075 229.055 30.2062 231.305 30.4546 233.536L35.3936 232.111V232.093C35.543 232.05 35.6781 231.968 35.7849 231.855C35.8917 231.742 35.9663 231.602 36.001 231.451C36.0357 231.299 36.0292 231.141 35.9821 230.993C35.9351 230.844 35.8492 230.711 35.7334 230.608V230.586ZM50.6745 233.516C50.8893 231.286 50.3706 229.047 49.1974 227.139L49.204 227.159L45.3717 230.588C45.256 230.692 45.1701 230.825 45.1231 230.973C45.076 231.121 45.0695 231.279 45.1042 231.431C45.1388 231.583 45.2135 231.722 45.3203 231.835C45.4271 231.948 45.5622 232.031 45.7116 232.074V232.096L50.6745 233.516ZM41.3412 230.843H39.7617L38.777 232.067L39.1299 233.592L40.5504 234.276L41.9687 233.595L42.3216 232.069L41.3412 230.843ZM45.021 235.056C44.9557 235.044 44.8892 235.039 44.8227 235.041V235.056C44.6837 235.065 44.5487 235.106 44.4291 235.177C44.3094 235.249 44.2086 235.347 44.135 235.466C44.0614 235.584 44.0172 235.718 44.006 235.857C43.9949 235.996 44.0172 236.135 44.0711 236.263L46.0536 241.056C47.9436 239.846 49.3775 238.042 50.1299 235.928L45.021 235.056ZM36.644 235.174C36.5207 235.105 36.3824 235.067 36.241 235.063L36.2345 235.052C36.1775 235.052 36.1206 235.057 36.0646 235.067L30.9992 235.928C31.7599 238.031 33.1936 239.825 35.0777 241.03L37.0384 236.287L37.0232 236.268C37.0773 236.137 37.0988 235.995 37.0859 235.854C37.073 235.714 37.026 235.578 36.9491 235.46C36.8721 235.341 36.7674 235.243 36.644 235.174ZM40.9809 237.257C40.8409 237.176 40.6813 237.136 40.5199 237.141V237.15C40.3683 237.156 40.2208 237.201 40.092 237.281C39.9632 237.362 39.8577 237.474 39.7857 237.608L37.2955 242.111C39.0786 242.718 40.9954 242.817 42.8314 242.396C43.1685 242.32 43.5015 242.227 43.8293 242.117L41.3325 237.597H41.3129C41.2359 237.455 41.121 237.337 40.9809 237.257Z" fill="#2563EB"/>
</g>
<rect width="80" height="80" rx="8" transform="matrix(-1 0 0 1 80.5527 368.023)" fill="#DBEAFE"/>
<path fill-rule="evenodd" clip-rule="evenodd" d="M30.0798 404.096C30.0798 404.687 30.1436 405.166 30.2554 405.517C30.3831 405.868 30.5427 406.251 30.7662 406.667C30.8461 406.794 30.878 406.922 30.878 407.034C30.878 407.193 30.7822 407.353 30.5747 407.513L29.5689 408.183C29.4252 408.279 29.2816 408.327 29.1539 408.327C28.9942 408.327 28.8346 408.247 28.6749 408.103C28.4514 407.864 28.2599 407.608 28.1002 407.353C27.9406 407.082 27.7809 406.778 27.6053 406.411C26.3601 407.88 24.7956 408.614 22.9118 408.614C21.5708 408.614 20.5012 408.231 19.719 407.465C18.9367 406.698 18.5376 405.677 18.5376 404.4C18.5376 403.043 19.0165 401.941 19.9903 401.111C20.9642 400.281 22.2573 399.866 23.9016 399.866C24.4444 399.866 25.0031 399.914 25.5938 399.993C26.1845 400.073 26.7911 400.201 27.4297 400.345V399.179C27.4297 397.966 27.1743 397.12 26.6794 396.625C26.1685 396.13 25.3065 395.891 24.0772 395.891C23.5185 395.891 22.9437 395.955 22.3531 396.098C21.7624 396.242 21.1877 396.417 20.6289 396.641C20.3735 396.753 20.1819 396.817 20.0702 396.849C19.9584 396.88 19.8786 396.896 19.8147 396.896C19.5912 396.896 19.4795 396.737 19.4795 396.402V395.619C19.4795 395.364 19.5114 395.172 19.5912 395.061C19.6711 394.949 19.8147 394.837 20.0382 394.725C20.597 394.438 21.2675 394.198 22.0497 394.007C22.832 393.799 23.6621 393.704 24.5402 393.704C26.4399 393.704 27.8288 394.135 28.7228 394.997C29.6009 395.859 30.0479 397.168 30.0479 398.924V404.096H30.0798ZM23.5983 406.523C24.1251 406.523 24.6679 406.427 25.2426 406.236C25.8173 406.044 26.3282 405.693 26.7592 405.214C27.0146 404.91 27.2062 404.575 27.302 404.192C27.3978 403.809 27.4616 403.346 27.4616 402.803V402.133C26.9987 402.021 26.5038 401.925 25.9929 401.861C25.4821 401.797 24.9872 401.766 24.4923 401.766C23.4227 401.766 22.6404 401.973 22.1136 402.404C21.5868 402.835 21.3313 403.442 21.3313 404.24C21.3313 404.99 21.5229 405.549 21.922 405.932C22.3052 406.331 22.8639 406.523 23.5983 406.523ZM36.4176 408.247C36.1303 408.247 35.9387 408.199 35.811 408.087C35.6833 407.992 35.5715 407.768 35.4757 407.465L31.7241 395.124C31.6283 394.805 31.5804 394.598 31.5804 394.486C31.5804 394.23 31.7081 394.087 31.9636 394.087H33.5281C33.8314 394.087 34.0389 394.135 34.1507 394.246C34.2784 394.342 34.3742 394.566 34.47 394.869L37.152 405.437L39.6424 394.869C39.7222 394.55 39.818 394.342 39.9457 394.246C40.0734 394.151 40.2969 394.087 40.5843 394.087H41.8614C42.1648 394.087 42.3723 394.135 42.5 394.246C42.6277 394.342 42.7395 394.566 42.8033 394.869L45.3257 405.565L48.0875 394.869C48.1833 394.55 48.295 394.342 48.4068 394.246C48.5345 394.151 48.742 394.087 49.0294 394.087H50.5141C50.7695 394.087 50.9132 394.214 50.9132 394.486C50.9132 394.554 50.9015 394.622 50.8882 394.7L50.8882 394.7L50.8813 394.741C50.8653 394.837 50.8334 394.965 50.7695 395.14L46.9221 407.481C46.8263 407.8 46.7146 408.008 46.5869 408.103C46.4592 408.199 46.2516 408.263 45.9802 408.263H44.6073C44.304 408.263 44.0964 408.215 43.9687 408.103C43.841 407.992 43.7293 407.784 43.6654 407.465L41.1909 397.168L38.7324 407.449C38.6526 407.768 38.5568 407.976 38.4291 408.087C38.3014 408.199 38.0779 408.247 37.7905 408.247H36.4176ZM56.9317 408.678C56.1016 408.678 55.2714 408.582 54.4732 408.391C53.675 408.199 53.0524 407.992 52.6373 407.752C52.3819 407.608 52.2063 407.449 52.1424 407.305C52.0786 407.161 52.0467 407.002 52.0467 406.858V406.044C52.0467 405.709 52.1744 405.549 52.4138 405.549C52.5096 405.549 52.6054 405.565 52.7012 405.597C52.763 405.618 52.8449 405.652 52.9381 405.69L52.9383 405.69C52.9893 405.711 53.0438 405.734 53.1003 405.757C53.6431 405.996 54.2338 406.188 54.8564 406.315C55.4949 406.443 56.1176 406.507 56.7561 406.507C57.7619 406.507 58.5441 406.331 59.0869 405.98C59.6297 405.629 59.9171 405.118 59.9171 404.463C59.9171 404.016 59.7734 403.649 59.486 403.346C59.1987 403.043 58.6559 402.771 57.8736 402.516L55.5588 401.797C54.3934 401.43 53.5313 400.887 53.0045 400.169C52.4777 399.467 52.2063 398.684 52.2063 397.854C52.2063 397.184 52.35 396.593 52.6373 396.082C52.9247 395.571 53.3078 395.124 53.7868 394.773C54.2657 394.406 54.8085 394.135 55.4471 393.943C56.0856 393.751 56.7561 393.672 57.4586 393.672C57.8098 393.672 58.1769 393.688 58.5282 393.735C58.8953 393.783 59.2306 393.847 59.5658 393.911C59.8851 393.991 60.1884 394.071 60.4758 394.167C60.7632 394.262 60.9867 394.358 61.1463 394.454C61.3698 394.582 61.5294 394.709 61.6252 394.853C61.721 394.981 61.7689 395.156 61.7689 395.38V396.13C61.7689 396.465 61.6412 396.641 61.4017 396.641C61.274 396.641 61.0665 396.577 60.7951 396.449C59.8851 396.034 58.8634 395.827 57.7299 395.827C56.82 395.827 56.1016 395.97 55.6067 396.274C55.1118 396.577 54.8564 397.04 54.8564 397.695C54.8564 398.142 55.016 398.525 55.3353 398.828C55.6546 399.131 56.2453 399.435 57.0914 399.706L59.3583 400.425C60.5077 400.792 61.3379 401.303 61.8328 401.957C62.3277 402.612 62.5671 403.362 62.5671 404.192C62.5671 404.879 62.4235 405.501 62.1521 406.044C61.8647 406.587 61.4816 407.066 60.9867 407.449C60.4918 407.848 59.9011 408.135 59.2146 408.343C58.4962 408.566 57.7459 408.678 56.9317 408.678ZM59.9488 416.436C54.6965 420.316 47.0656 422.375 40.5043 422.375C31.3089 422.375 23.0234 418.975 16.7654 413.323C16.2705 412.876 16.7175 412.27 17.3082 412.621C24.077 416.548 32.4264 418.927 41.063 418.927C46.89 418.927 53.2917 417.714 59.1825 415.223C60.0606 414.824 60.8109 415.798 59.9488 416.436ZM55.9896 413.739C57.6977 413.531 61.4653 413.084 62.1358 413.946C62.8063 414.792 61.3855 418.352 60.7469 419.933C60.5554 420.412 60.9704 420.603 61.4015 420.236C64.2112 417.873 64.9455 412.94 64.3708 412.222C63.7961 411.52 58.8631 410.913 55.8619 413.02C55.3989 413.355 55.4787 413.802 55.9896 413.739Z" fill="#111827"/>
<path d="M187.173 174.315L286.985 116.646L384.999 173.288L383.528 286.966L284.119 344.401L186.154 287.805L187.173 174.315Z" stroke="#1E40AF" stroke-width="2" stroke-dasharray="6 6"/>
<path d="M207.855 183.452L207.846 275.675L284.433 319.889L284.451 232.077L207.855 183.452Z" fill="#1E40AF"/>
<path d="M284.46 232.07L364.348 182.79L364.346 273.782L284.43 319.88L284.46 232.07Z" fill="#2563EB"/>
<path d="M207.854 183.455L286.684 134.819L364.346 182.797L284.46 232.118L207.854 183.455Z" fill="#60A5FA"/>
<defs>
<clipPath id="clip0_9292_121710">
<rect width="48" height="48" fill="white" transform="translate(16.5527 206.523)"/>
</clipPath>
</defs>
</svg>
